<?xml version="1.0" encoding="UTF-8"?>
<svg xmlns="http://www.w3.org/2000/svg" version="1.1" width="150" height="150" viewBox="0 0 150 150"><rect x="0" y="0" width="150" height="150" fill="#ffffff"/><g transform="scale(4.839)"><g transform="translate(1,1)"><path fill-rule="evenodd" d="M10 0L10 2L11 2L11 0ZM12 0L12 1L13 1L13 2L12 2L12 4L13 4L13 3L14 3L14 4L16 4L16 5L15 5L15 6L14 6L14 8L15 8L15 9L12 9L12 7L13 7L13 5L11 5L11 6L10 6L10 4L11 4L11 3L8 3L8 4L9 4L9 5L8 5L8 7L9 7L9 8L6 8L6 9L10 9L10 11L11 11L11 9L12 9L12 10L13 10L13 11L12 11L12 13L13 13L13 12L14 12L14 13L15 13L15 12L16 12L16 13L18 13L18 14L15 14L15 15L14 15L14 16L15 16L15 17L12 17L12 15L13 15L13 14L11 14L11 15L10 15L10 14L8 14L8 15L7 15L7 14L6 14L6 13L7 13L7 12L5 12L5 11L3 11L3 10L2 10L2 9L5 9L5 8L0 8L0 10L1 10L1 11L3 11L3 12L0 12L0 15L2 15L2 14L1 14L1 13L3 13L3 17L2 17L2 16L0 16L0 21L1 21L1 18L3 18L3 19L2 19L2 20L3 20L3 21L7 21L7 20L8 20L8 23L9 23L9 24L8 24L8 29L9 29L9 27L10 27L10 29L11 29L11 26L10 26L10 25L12 25L12 26L13 26L13 27L12 27L12 29L13 29L13 28L14 28L14 29L16 29L16 27L18 27L18 26L15 26L15 25L19 25L19 23L20 23L20 25L21 25L21 26L22 26L22 27L20 27L20 26L19 26L19 27L20 27L20 28L19 28L19 29L20 29L20 28L22 28L22 29L24 29L24 28L25 28L25 27L26 27L26 26L22 26L22 25L25 25L25 24L26 24L26 25L27 25L27 28L26 28L26 29L27 29L27 28L28 28L28 26L29 26L29 25L27 25L27 24L28 24L28 22L29 22L29 20L25 20L25 18L26 18L26 19L27 19L27 18L29 18L29 17L28 17L28 16L29 16L29 15L28 15L28 14L29 14L29 13L28 13L28 12L29 12L29 11L28 11L28 10L29 10L29 9L28 9L28 8L27 8L27 9L28 9L28 10L25 10L25 9L26 9L26 8L25 8L25 9L24 9L24 8L23 8L23 9L22 9L22 8L21 8L21 5L20 5L20 4L21 4L21 3L20 3L20 2L19 2L19 3L17 3L17 2L16 2L16 0L15 0L15 1L14 1L14 0ZM18 0L18 1L21 1L21 0ZM8 1L8 2L9 2L9 1ZM14 2L14 3L15 3L15 2ZM16 3L16 4L17 4L17 3ZM19 3L19 4L20 4L20 3ZM17 5L17 7L16 7L16 6L15 6L15 7L16 7L16 8L18 8L18 9L15 9L15 10L17 10L17 11L16 11L16 12L18 12L18 13L19 13L19 12L21 12L21 10L22 10L22 9L20 9L20 5ZM9 6L9 7L10 7L10 6ZM11 6L11 7L12 7L12 6ZM18 6L18 7L19 7L19 6ZM10 8L10 9L11 9L11 8ZM18 9L18 10L20 10L20 9ZM23 9L23 11L22 11L22 13L23 13L23 15L22 15L22 14L21 14L21 13L20 13L20 14L19 14L19 15L15 15L15 16L18 16L18 17L15 17L15 18L17 18L17 20L18 20L18 19L19 19L19 21L14 21L14 20L16 20L16 19L14 19L14 20L13 20L13 21L12 21L12 19L13 19L13 18L12 18L12 17L9 17L9 16L10 16L10 15L9 15L9 16L8 16L8 17L9 17L9 19L8 19L8 18L7 18L7 17L5 17L5 15L6 15L6 16L7 16L7 15L6 15L6 14L5 14L5 15L4 15L4 18L7 18L7 19L6 19L6 20L7 20L7 19L8 19L8 20L10 20L10 23L11 23L11 22L13 22L13 23L12 23L12 25L15 25L15 24L14 24L14 23L15 23L15 22L17 22L17 24L18 24L18 23L19 23L19 21L20 21L20 20L21 20L21 19L22 19L22 20L24 20L24 19L23 19L23 18L22 18L22 17L25 17L25 16L28 16L28 15L27 15L27 14L28 14L28 13L26 13L26 15L25 15L25 16L23 16L23 15L24 15L24 13L25 13L25 12L28 12L28 11L25 11L25 12L24 12L24 13L23 13L23 11L24 11L24 9ZM6 10L6 11L7 11L7 10ZM8 10L8 11L9 11L9 10ZM14 11L14 12L15 12L15 11ZM3 12L3 13L5 13L5 12ZM9 12L9 13L11 13L11 12ZM20 14L20 16L19 16L19 17L18 17L18 18L20 18L20 16L21 16L21 17L22 17L22 16L21 16L21 14ZM26 17L26 18L27 18L27 17ZM3 19L3 20L5 20L5 19ZM21 21L21 24L24 24L24 21ZM25 21L25 23L26 23L26 24L27 24L27 22L28 22L28 21ZM22 22L22 23L23 23L23 22ZM9 24L9 25L10 25L10 24ZM14 27L14 28L15 28L15 27ZM22 27L22 28L23 28L23 27ZM17 28L17 29L18 29L18 28ZM0 0L0 7L7 7L7 0ZM1 1L1 6L6 6L6 1ZM2 2L2 5L5 5L5 2ZM22 0L22 7L29 7L29 0ZM23 1L23 6L28 6L28 1ZM24 2L24 5L27 5L27 2ZM0 22L0 29L7 29L7 22ZM1 23L1 28L6 28L6 23ZM2 24L2 27L5 27L5 24Z" fill="#000000"/></g></g></svg>
