<?xml version="1.0" encoding="UTF-8"?>
<svg xmlns="http://www.w3.org/2000/svg" version="1.1" width="150" height="150" viewBox="0 0 150 150"><rect x="0" y="0" width="150" height="150" fill="#ffffff"/><g transform="scale(4.839)"><g transform="translate(1,1)"><path fill-rule="evenodd" d="M10 0L10 2L11 2L11 0ZM12 0L12 1L13 1L13 2L12 2L12 4L13 4L13 3L14 3L14 4L17 4L17 5L15 5L15 6L14 6L14 8L15 8L15 9L12 9L12 7L13 7L13 5L11 5L11 6L10 6L10 4L11 4L11 3L8 3L8 4L9 4L9 5L8 5L8 7L9 7L9 8L6 8L6 9L10 9L10 11L11 11L11 9L12 9L12 10L13 10L13 11L12 11L12 13L13 13L13 12L14 12L14 13L19 13L19 14L17 14L17 15L18 15L18 16L17 16L17 17L16 17L16 16L15 16L15 15L16 15L16 14L15 14L15 15L14 15L14 16L15 16L15 17L12 17L12 15L13 15L13 14L10 14L10 13L11 13L11 12L9 12L9 11L7 11L7 10L4 10L4 11L3 11L3 13L2 13L2 14L6 14L6 15L5 15L5 16L4 16L4 15L2 15L2 16L1 16L1 17L0 17L0 21L1 21L1 17L3 17L3 16L4 16L4 18L5 18L5 19L7 19L7 20L4 20L4 19L2 19L2 20L3 20L3 21L7 21L7 20L9 20L9 19L10 19L10 20L11 20L11 19L10 19L10 18L9 18L9 17L7 17L7 16L6 16L6 15L8 15L8 16L10 16L10 15L11 15L11 17L12 17L12 18L13 18L13 19L12 19L12 21L13 21L13 20L14 20L14 21L19 21L19 23L18 23L18 24L15 24L15 23L16 23L16 22L15 22L15 23L14 23L14 24L15 24L15 25L12 25L12 23L13 23L13 22L11 22L11 24L10 24L10 25L9 25L9 24L8 24L8 29L11 29L11 28L10 28L10 27L11 27L11 26L10 26L10 25L12 25L12 26L13 26L13 27L12 27L12 29L13 29L13 28L14 28L14 29L16 29L16 28L14 28L14 27L16 27L16 26L15 26L15 25L18 25L18 26L17 26L17 27L18 27L18 28L17 28L17 29L18 29L18 28L21 28L21 29L22 29L22 28L21 28L21 27L23 27L23 29L24 29L24 28L25 28L25 27L26 27L26 25L27 25L27 28L26 28L26 29L27 29L27 28L28 28L28 26L29 26L29 25L27 25L27 24L28 24L28 22L29 22L29 20L25 20L25 19L27 19L27 18L29 18L29 17L28 17L28 16L29 16L29 15L28 15L28 14L29 14L29 13L28 13L28 12L29 12L29 11L28 11L28 10L29 10L29 9L28 9L28 8L27 8L27 9L28 9L28 10L27 10L27 11L28 11L28 12L26 12L26 8L25 8L25 9L24 9L24 8L23 8L23 9L22 9L22 8L20 8L20 9L19 9L19 8L17 8L17 5L20 5L20 7L21 7L21 5L20 5L20 4L21 4L21 2L20 2L20 4L19 4L19 2L18 2L18 3L17 3L17 2L16 2L16 0L15 0L15 1L14 1L14 0ZM18 0L18 1L21 1L21 0ZM8 1L8 2L9 2L9 1ZM14 2L14 3L15 3L15 2ZM9 6L9 7L10 7L10 6ZM11 6L11 7L12 7L12 6ZM15 6L15 8L16 8L16 6ZM18 6L18 7L19 7L19 6ZM0 8L0 10L1 10L1 12L0 12L0 15L1 15L1 12L2 12L2 9L5 9L5 8ZM10 8L10 9L11 9L11 8ZM15 9L15 10L17 10L17 12L19 12L19 13L21 13L21 11L23 11L23 12L22 12L22 13L23 13L23 14L24 14L24 13L25 13L25 16L24 16L24 17L23 17L23 15L22 15L22 14L21 14L21 16L20 16L20 14L19 14L19 16L20 16L20 18L19 18L19 17L17 17L17 18L19 18L19 19L14 19L14 20L19 20L19 21L20 21L20 18L21 18L21 19L22 19L22 20L24 20L24 19L23 19L23 18L24 18L24 17L25 17L25 18L27 18L27 17L25 17L25 16L28 16L28 15L26 15L26 14L28 14L28 13L26 13L26 12L24 12L24 11L25 11L25 10L21 10L21 9L20 9L20 10L19 10L19 9L18 9L18 10L17 10L17 9ZM18 10L18 11L19 11L19 12L20 12L20 11L19 11L19 10ZM4 11L4 13L5 13L5 11ZM6 11L6 12L7 12L7 13L6 13L6 14L7 14L7 13L9 13L9 12L7 12L7 11ZM14 11L14 12L16 12L16 11ZM23 12L23 13L24 13L24 12ZM8 14L8 15L10 15L10 14ZM5 16L5 17L6 17L6 18L7 18L7 19L8 19L8 18L7 18L7 17L6 17L6 16ZM21 16L21 17L22 17L22 18L23 18L23 17L22 17L22 16ZM15 17L15 18L16 18L16 17ZM8 21L8 23L9 23L9 21ZM21 21L21 24L24 24L24 21ZM26 21L26 22L25 22L25 23L26 23L26 24L25 24L25 25L24 25L24 26L23 26L23 25L20 25L20 23L19 23L19 24L18 24L18 25L20 25L20 27L21 27L21 26L23 26L23 27L24 27L24 26L25 26L25 25L26 25L26 24L27 24L27 23L26 23L26 22L28 22L28 21ZM22 22L22 23L23 23L23 22ZM0 0L0 7L7 7L7 0ZM1 1L1 6L6 6L6 1ZM2 2L2 5L5 5L5 2ZM22 0L22 7L29 7L29 0ZM23 1L23 6L28 6L28 1ZM24 2L24 5L27 5L27 2ZM0 22L0 29L7 29L7 22ZM1 23L1 28L6 28L6 23ZM2 24L2 27L5 27L5 24Z" fill="#000000"/></g></g></svg>
