<?xml version="1.0" encoding="UTF-8"?>
<svg xmlns="http://www.w3.org/2000/svg" version="1.1" width="150" height="150" viewBox="0 0 150 150"><rect x="0" y="0" width="150" height="150" fill="#ffffff"/><g transform="scale(6)"><g transform="translate(0,0)"><path fill-rule="evenodd" d="M8 0L8 4L9 4L9 5L8 5L8 7L9 7L9 6L10 6L10 9L11 9L11 10L9 10L9 9L8 9L8 10L6 10L6 9L7 9L7 8L4 8L4 9L2 9L2 8L0 8L0 9L2 9L2 10L1 10L1 13L0 13L0 14L2 14L2 13L3 13L3 14L6 14L6 15L8 15L8 16L9 16L9 15L12 15L12 14L13 14L13 15L14 15L14 16L15 16L15 17L14 17L14 18L16 18L16 21L15 21L15 22L14 22L14 21L13 21L13 22L14 22L14 23L15 23L15 25L16 25L16 23L17 23L17 24L18 24L18 25L19 25L19 24L22 24L22 25L25 25L25 24L24 24L24 22L25 22L25 21L24 21L24 20L25 20L25 19L21 19L21 17L23 17L23 16L24 16L24 15L23 15L23 14L24 14L24 13L25 13L25 12L24 12L24 11L23 11L23 10L24 10L24 9L25 9L25 8L21 8L21 9L20 9L20 8L19 8L19 9L20 9L20 10L17 10L17 9L16 9L16 7L17 7L17 6L16 6L16 7L15 7L15 6L14 6L14 7L15 7L15 8L14 8L14 10L13 10L13 11L12 11L12 9L13 9L13 8L12 8L12 7L13 7L13 6L12 6L12 7L11 7L11 5L12 5L12 4L11 4L11 3L10 3L10 2L11 2L11 1L13 1L13 2L12 2L12 3L13 3L13 4L14 4L14 5L17 5L17 3L16 3L16 2L17 2L17 0L14 0L14 1L13 1L13 0L11 0L11 1L10 1L10 0ZM15 1L15 2L16 2L16 1ZM13 2L13 3L14 3L14 2ZM15 3L15 4L16 4L16 3ZM10 4L10 5L11 5L11 4ZM4 9L4 13L6 13L6 14L8 14L8 13L11 13L11 12L12 12L12 11L10 11L10 12L8 12L8 11L9 11L9 10L8 10L8 11L6 11L6 12L5 12L5 9ZM22 9L22 10L23 10L23 9ZM16 10L16 12L15 12L15 11L13 11L13 13L16 13L16 12L19 12L19 11L17 11L17 10ZM20 10L20 11L21 11L21 12L20 12L20 13L17 13L17 15L18 15L18 14L20 14L20 13L21 13L21 14L23 14L23 13L21 13L21 12L22 12L22 11L21 11L21 10ZM2 11L2 12L3 12L3 11ZM6 12L6 13L8 13L8 12ZM2 15L2 16L0 16L0 17L3 17L3 16L4 16L4 17L5 17L5 16L4 16L4 15ZM15 15L15 16L16 16L16 15ZM21 15L21 16L22 16L22 15ZM6 16L6 17L7 17L7 16ZM12 16L12 17L11 17L11 18L10 18L10 17L8 17L8 18L10 18L10 19L8 19L8 21L9 21L9 22L10 22L10 23L11 23L11 25L13 25L13 24L12 24L12 21L11 21L11 20L13 20L13 18L12 18L12 17L13 17L13 16ZM17 17L17 20L20 20L20 17ZM18 18L18 19L19 19L19 18ZM14 19L14 20L15 20L15 19ZM9 20L9 21L10 21L10 20ZM16 21L16 22L17 22L17 21ZM20 21L20 22L19 22L19 23L21 23L21 22L22 22L22 23L23 23L23 22L22 22L22 21ZM8 23L8 25L10 25L10 24L9 24L9 23ZM0 0L0 7L7 7L7 0ZM1 1L1 6L6 6L6 1ZM2 2L2 5L5 5L5 2ZM18 0L18 7L25 7L25 0ZM19 1L19 6L24 6L24 1ZM20 2L20 5L23 5L23 2ZM0 18L0 25L7 25L7 18ZM1 19L1 24L6 24L6 19ZM2 20L2 23L5 23L5 20Z" fill="#000000"/></g></g></svg>
